<svg width="64" height="64" viewBox="0 0 64 64" fill="none" xmlns="http://www.w3.org/2000/svg">
<g clip-path="url(#clip0_5570_22747)">
<path d="M31.9971 37.0869C33.7635 37.0869 35.5122 37.4397 37.1406 38.124C38.7691 38.8083 40.2452 39.8106 41.4814 41.0723C42.2542 41.8612 42.2409 43.1274 41.4521 43.9004C40.6633 44.6733 39.3971 44.6608 38.624 43.8721C37.7602 42.9905 36.7287 42.2897 35.5908 41.8115C34.453 41.3334 33.2312 41.0869 31.9971 41.0869C30.7628 41.0869 29.5402 41.3334 28.4023 41.8115C27.2647 42.2896 26.2338 42.9906 25.3701 43.8721C24.5971 44.6608 23.3309 44.6733 22.542 43.9004C21.7531 43.1274 21.7398 41.8612 22.5127 41.0723C23.7489 39.8106 25.2251 38.8083 26.8535 38.124C28.482 37.4398 30.2307 37.0869 31.9971 37.0869Z" fill="#36A9E1"/>
<path d="M22.3643 23.0557C23.745 23.0557 24.8643 24.175 24.8643 25.5557C24.8642 26.9363 23.7449 28.0557 22.3643 28.0557H22.332C20.9514 28.0557 19.8321 26.9363 19.832 25.5557C19.832 24.175 20.9513 23.0557 22.332 23.0557H22.3643Z" fill="#36A9E1"/>
<path d="M41.7002 23.0557C43.0809 23.0557 44.2002 24.175 44.2002 25.5557C44.2001 26.9363 43.0809 28.0557 41.7002 28.0557H41.668C40.2873 28.0557 39.168 26.9363 39.168 25.5557C39.168 24.175 40.2873 23.0557 41.668 23.0557H41.7002Z" fill="#36A9E1"/>
<path fill-rule="evenodd" clip-rule="evenodd" d="M32 1C36.071 1 40.1022 1.80149 43.8633 3.35938C47.6244 4.91727 51.0413 7.20146 53.9199 10.0801C56.7985 12.9587 59.0827 16.3756 60.6406 20.1367C62.1985 23.8978 63 27.929 63 32C63 36.071 62.1985 40.1022 60.6406 43.8633C59.0827 47.6244 56.7985 51.0413 53.9199 53.9199C51.0413 56.7985 47.6244 59.0827 43.8633 60.6406C40.1022 62.1985 36.071 63 32 63C27.929 63 23.8978 62.1985 20.1367 60.6406C16.3756 59.0827 12.9587 56.7985 10.0801 53.9199C7.20146 51.0413 4.91727 47.6244 3.35938 43.8633C1.80149 40.1022 1 36.071 1 32C1 27.929 1.80149 23.8978 3.35938 20.1367C4.91727 16.3756 7.20146 12.9587 10.0801 10.0801C12.9587 7.20146 16.3756 4.91727 20.1367 3.35938C23.8978 1.80149 27.929 1 32 1ZM32 5C28.4544 5 24.9437 5.69885 21.668 7.05566C18.3922 8.41254 15.4154 10.401 12.9082 12.9082C10.401 15.4154 8.41254 18.3922 7.05566 21.668C5.69885 24.9437 5 28.4544 5 32C5 35.5456 5.69885 39.0563 7.05566 42.332C8.41254 45.6078 10.401 48.5846 12.9082 51.0918C15.4154 53.599 18.3922 55.5875 21.668 56.9443C24.9437 58.3012 28.4544 59 32 59C35.5456 59 39.0563 58.3012 42.332 56.9443C45.6078 55.5875 48.5846 53.599 51.0918 51.0918C53.599 48.5846 55.5875 45.6078 56.9443 42.332C58.3012 39.0563 59 35.5456 59 32C59 28.4544 58.3012 24.9437 56.9443 21.668C55.5875 18.3922 53.599 15.4154 51.0918 12.9082C48.5846 10.401 45.6078 8.41254 42.332 7.05566C39.0563 5.69885 35.5456 5 32 5Z" fill="#36A9E1"/>
</g>
<defs>
<clipPath id="clip0_5570_22747">
<rect width="64" height="64" fill="white"/>
</clipPath>
</defs>
</svg>
