<svg width="22" height="22" viewBox="0 0 22 22" fill="none" xmlns="http://www.w3.org/2000/svg">
<path d="M16.5009 11.9166C17.0072 11.9166 17.4176 12.327 17.4176 12.8333V17.037L18.6028 15.8518C18.9608 15.4938 19.541 15.4938 19.899 15.8518C20.257 16.2098 20.257 16.7901 19.899 17.148L17.149 19.898C17.1052 19.9419 17.0568 19.981 17.0049 20.0153C16.9703 20.0381 16.9342 20.0576 16.8975 20.0753C16.856 20.0952 16.8132 20.1127 16.7686 20.1263C16.75 20.132 16.731 20.1362 16.7122 20.1406C16.7017 20.1431 16.6914 20.1457 16.6808 20.1478C16.6713 20.1497 16.6617 20.1507 16.6522 20.1523C16.6029 20.1605 16.5525 20.1666 16.5009 20.1666C16.449 20.1666 16.3983 20.1606 16.3487 20.1523C16.3392 20.1507 16.3296 20.1497 16.3201 20.1478C16.3095 20.1457 16.2991 20.1431 16.2887 20.1406C16.2699 20.1362 16.2509 20.132 16.2323 20.1263C16.1877 20.1127 16.1449 20.0953 16.1034 20.0753C16.067 20.0577 16.0313 20.038 15.9969 20.0153C15.945 19.981 15.8966 19.9419 15.8528 19.898L13.1028 17.148C12.7448 16.7901 12.7448 16.2098 13.1028 15.8518C13.4608 15.4938 14.041 15.4938 14.399 15.8518L15.5842 17.037V12.8333C15.5842 12.327 15.9946 11.9166 16.5009 11.9166Z" fill="#36A9E1"/>
<path d="M11 2.74992C11.5063 2.74992 11.9167 3.16032 11.9167 3.66659C11.9167 4.17285 11.5063 4.58325 11 4.58325H5.5C5.25697 4.58332 5.02374 4.67996 4.85189 4.85181C4.68006 5.0237 4.58333 5.25686 4.58333 5.49992V16.4999C4.58333 16.743 4.68006 16.9761 4.85189 17.148C5.02374 17.3199 5.25697 17.4165 5.5 17.4166H11C11.5063 17.4166 11.9167 17.827 11.9167 18.3333C11.9167 18.8395 11.5063 19.2499 11 19.2499H5.5C4.77074 19.2499 4.07133 18.9599 3.55566 18.4443C3.04002 17.9285 2.75 17.2292 2.75 16.4999V5.49992C2.75 4.77063 3.04002 4.0713 3.55566 3.55558C4.07133 3.03992 4.77074 2.74998 5.5 2.74992H11Z" fill="#36A9E1"/>
<path d="M16.5197 1.83415C16.5358 1.83447 16.5519 1.83477 16.568 1.83594C16.5843 1.83711 16.6004 1.8384 16.6164 1.84041C16.632 1.84238 16.6474 1.8457 16.6629 1.84847C16.6719 1.85007 16.6809 1.85109 16.6898 1.85295C16.7126 1.85773 16.7353 1.86341 16.7578 1.86995C16.765 1.87204 16.7722 1.87396 16.7793 1.87622C16.7904 1.87976 16.8014 1.88388 16.8124 1.88786C16.8448 1.89956 16.8759 1.91391 16.9064 1.92904C16.936 1.94364 16.9651 1.95938 16.9932 1.97738C17.0496 2.01334 17.102 2.05477 17.149 2.10181L19.899 4.85181C20.2569 5.2098 20.257 5.79009 19.899 6.14803C19.5411 6.50587 18.9607 6.50587 18.6028 6.14803L17.4176 4.96281V9.16659C17.4176 9.67285 17.0072 10.0833 16.5009 10.0833C15.9946 10.0833 15.5842 9.67285 15.5842 9.16659V4.96281L14.399 6.14803C14.0411 6.50587 13.4607 6.50587 13.1028 6.14803C12.7448 5.79009 12.7449 5.2098 13.1028 4.85181L15.8528 2.10181C15.8954 2.05921 15.9422 2.02081 15.9924 1.98722C16.0279 1.96351 16.0648 1.9428 16.1025 1.92456C16.1541 1.89965 16.2082 1.87958 16.2646 1.86458C16.2798 1.86053 16.2949 1.8562 16.3102 1.85295C16.3203 1.85082 16.3305 1.84937 16.3407 1.84757C16.3567 1.84473 16.3728 1.8424 16.389 1.84041C16.4053 1.83843 16.4217 1.83705 16.4382 1.83594C16.4528 1.83493 16.4675 1.83445 16.4821 1.83415C16.4884 1.83402 16.4946 1.83325 16.5009 1.83325C16.5072 1.83325 16.5134 1.83402 16.5197 1.83415Z" fill="#36A9E1"/>
</svg>
