<svg width="22" height="22" viewBox="0 0 22 22" fill="none" xmlns="http://www.w3.org/2000/svg">
<g clip-path="url(#clip0_5657_13209)">
<path fill-rule="evenodd" clip-rule="evenodd" d="M6.41797 13.75C6.9042 13.75 7.37103 13.9433 7.71484 14.2871C8.05866 14.6309 8.25195 15.0978 8.25195 15.584V19.25C8.25195 19.7362 8.05866 20.2031 7.71484 20.5469C7.37103 20.8907 6.9042 21.084 6.41797 21.084H2.75195C2.26572 21.084 1.7989 20.8907 1.45508 20.5469C1.11126 20.2031 0.917969 19.7362 0.917969 19.25V15.584C0.917969 15.0978 1.11126 14.6309 1.45508 14.2871C1.7989 13.9433 2.26572 13.75 2.75195 13.75H6.41797ZM2.75195 19.25H6.41797V15.584H2.75195V19.25Z" fill="#36A9E1"/>
<path fill-rule="evenodd" clip-rule="evenodd" d="M17.418 1.83203C18.1472 1.83212 18.8467 2.12205 19.3623 2.6377C19.878 3.15334 20.1679 3.8528 20.168 4.58203V17.416C20.1679 18.1452 19.878 18.8447 19.3623 19.3604C18.8467 19.876 18.1472 20.1659 17.418 20.166H11.001C10.4947 20.166 10.084 19.7553 10.084 19.249C10.084 18.7428 10.4947 18.332 11.001 18.332H17.418C17.661 18.3319 17.8936 18.2353 18.0654 18.0635C18.2373 17.8916 18.3339 17.659 18.334 17.416V10.084H10.084V11.916C10.0838 12.4221 9.67315 12.832 9.16699 12.832C8.66084 12.832 8.25018 12.4221 8.25 11.916V10.084H3.66797V10.999C3.66797 11.5053 3.25724 11.916 2.75098 11.916C2.24472 11.916 1.83398 11.5053 1.83398 10.999V4.58203C1.83407 3.8528 2.124 3.15334 2.63965 2.6377C3.1553 2.12205 3.85476 1.83212 4.58398 1.83203H17.418ZM4.58398 3.66602C4.34099 3.6661 4.10836 3.76274 3.93652 3.93457C3.76469 4.1064 3.66806 4.33903 3.66797 4.58203V8.25H8.25V3.66602H4.58398ZM10.084 8.25H18.334V4.58203C18.3339 4.33903 18.2373 4.1064 18.0654 3.93457C17.8936 3.76274 17.661 3.6661 17.418 3.66602H10.084V8.25Z" fill="#36A9E1"/>
</g>
<defs>
<clipPath id="clip0_5657_13209">
<rect width="22" height="22" fill="white"/>
</clipPath>
</defs>
</svg>
